<svg xmlns="http://www.w3.org/2000/svg" viewBox="0 0 98.56 25.61"><defs><style>.cls-1{fill:#1f1e21;fill-rule:evenodd;}</style></defs><title>Asset 1</title><g id="Layer_2" data-name="Layer 2"><g id="copy"><polygon class="cls-1" points="0 0.6 8.69 0.6 8.69 0.85 6.55 0.85 13.04 18.6 18.51 0.85 16.36 0.85 16.36 0.6 21.04 0.6 21.04 0.85 18.97 0.85 11.26 25.38 2.29 0.85 0 0.85 0 0.6"/><path class="cls-1" d="M58.48.17V8.7h-.2A15.4,15.4,0,0,0,56.5,3.9C55.43,2.17,53.73.22,51.5.22c-5.11,0-5.57,9.15-5.57,12.64a25.67,25.67,0,0,0,1.38,9.28c.79,2.05,1.95,3.06,4.08,3.06a5.25,5.25,0,0,0,4.4-2.33A2.33,2.33,0,0,0,56,21.62V15H53.82v-.26H62V15H60.07v9.86H59.9a2.54,2.54,0,0,0-2.21-1.33,4.23,4.23,0,0,0-2,.59l-.55.3a9.23,9.23,0,0,1-3.83,1c-6.34,0-9.71-6.76-9.71-12.36,0-4.1,1.56-8.48,4.88-11a8.69,8.69,0,0,1,5.21-2,6,6,0,0,1,2.19.51l.51.2a5.47,5.47,0,0,0,1.84.42,3.7,3.7,0,0,0,2.07-1Z"/><path class="cls-1" d="M60.92.6h8.71V.85H67.32V19.77c0,3,3.05,4.77,5.72,4.77a5,5,0,0,0,5.3-4.94V.85H75.61V.6H98.1V9.37h-.17c-.26-2.32-.7-4.71-2.3-6.52s-3.81-2-6.07-2H87.12V12.13a14.43,14.43,0,0,0,1.52.09c3.06,0,3.86-2.11,4-4.71h.23v9.9h-.23c-.38-2.37-1.43-4.9-4.2-4.9-.44,0-.87,0-1.3.06V24.64h3.65a7.43,7.43,0,0,0,5.12-2.14,7.77,7.77,0,0,0,2.21-4.17,22.09,22.09,0,0,0,.27-2.68h.2v9.24H81v-.25h2V.85H78.7V19.67c0,3.89-3.7,5.62-7.16,5.62-3.92,0-8.24-1.9-8.24-6.38V.85H60.92Z"/><path class="cls-1" d="M36.43,3.88A9.83,9.83,0,0,0,29.08.07,10,10,0,0,0,21.32,4.2a14.2,14.2,0,0,0-2.79,8.63,14.25,14.25,0,0,0,3,9A9.91,9.91,0,0,0,29,25.61a10,10,0,0,0,7.7-4.14,14.25,14.25,0,0,0,2.8-8.62,14.33,14.33,0,0,0-3-9M29,25.25c-4.8,0-6.06-8.86-6.06-12.41S24.19.44,29,.44s6.06,8.86,6.06,12.4S33.79,25.25,29,25.25"/></g></g></svg>