<svg xmlns="http://www.w3.org/2000/svg" viewBox="0 0 126.06 18.98"><defs><style>.cls-1{fill:#1f1e21;}</style></defs><title>Asset 4</title><g id="Layer_2" data-name="Layer 2"><g id="copy"><path class="cls-1" d="M7.15,12.15h3.11v3.67l-.13,0-.51,0h-.5a5,5,0,0,1-3.89-1.56A6.86,6.86,0,0,1,3.81,9.57a8.62,8.62,0,0,1,.37-2.64A5.48,5.48,0,0,1,5.19,5,4.29,4.29,0,0,1,6.73,3.89a4.76,4.76,0,0,1,1.91-.38,5.21,5.21,0,0,1,1.69.28,7,7,0,0,1,1.4.69,8.51,8.51,0,0,1,1.06.79c.33.29.59.66.78.66h.08V2A15.61,15.61,0,0,0,11.23.85,9.7,9.7,0,0,0,8.08.42,7.42,7.42,0,0,0,2.17,2.93,10,10,0,0,0,0,9.65a10,10,0,0,0,2.17,6.87A7.44,7.44,0,0,0,8,18.93a12.52,12.52,0,0,0,3.29-.46c1-.29,1.81-.6,2.65-.9V9H7.15Z"/><path class="cls-1" d="M22,4.79a5.48,5.48,0,0,0-4.42,1.87A7.92,7.92,0,0,0,16,11.89a7.94,7.94,0,0,0,1.57,5.21A5.48,5.48,0,0,0,22,19,5.45,5.45,0,0,0,26.4,17.1,8,8,0,0,0,28,11.89a7.94,7.94,0,0,0-1.58-5.22A5.42,5.42,0,0,0,22,4.79M24.28,14a4.1,4.1,0,0,1-.52,1.3A1.9,1.9,0,0,1,23,16a2.24,2.24,0,0,1-1,.23A2.34,2.34,0,0,1,21,16a2,2,0,0,1-.79-.74A4.29,4.29,0,0,1,19.68,14a9,9,0,0,1-.18-2,9.67,9.67,0,0,1,.19-2.11,4,4,0,0,1,.53-1.34,1.91,1.91,0,0,1,.8-.72,2.35,2.35,0,0,1,1-.19,2.17,2.17,0,0,1,1,.21,2,2,0,0,1,.8.76,4.2,4.2,0,0,1,.5,1.34,10,10,0,0,1,.18,2.05A9.69,9.69,0,0,1,24.28,14"/><path class="cls-1" d="M35.34,4.79a5.46,5.46,0,0,0-4.41,1.87,7.91,7.91,0,0,0-1.58,5.23,7.94,7.94,0,0,0,1.58,5.21A5.45,5.45,0,0,0,35.34,19a5.45,5.45,0,0,0,4.42-1.88,8,8,0,0,0,1.57-5.21,8,8,0,0,0-1.57-5.22,5.43,5.43,0,0,0-4.42-1.88M37.64,14a4.14,4.14,0,0,1-.51,1.3,1.92,1.92,0,0,1-.8.71,2.19,2.19,0,0,1-1,.23,2.36,2.36,0,0,1-1-.23,2,2,0,0,1-.8-.74A4.22,4.22,0,0,1,33,14a9.11,9.11,0,0,1-.18-2,9.43,9.43,0,0,1,.2-2.11,4,4,0,0,1,.52-1.34,1.93,1.93,0,0,1,.8-.72,2.34,2.34,0,0,1,1-.19,2.27,2.27,0,0,1,1,.21,2,2,0,0,1,.8.76,4.18,4.18,0,0,1,.5,1.34,9.83,9.83,0,0,1,.18,2.05A9.58,9.58,0,0,1,37.64,14"/><path class="cls-1" d="M50.64,5.87l-.2-.13a9,9,0,0,0-1.36-.68,4.27,4.27,0,0,0-1.47-.21,3.84,3.84,0,0,0-1.88.49A4.8,4.8,0,0,0,44.21,6.7a7.54,7.54,0,0,0-1.09,2.24,10.58,10.58,0,0,0-.4,3,9.67,9.67,0,0,0,1.16,5.08A3.46,3.46,0,0,0,47,18.93a3.92,3.92,0,0,0,1-.12,4.18,4.18,0,0,0,.85-.36,5.06,5.06,0,0,0,.79-.56c.3-.26.57-.5.8-.72l.22-.23v1.7H54V0H50.64Zm0,9.13,0,0a3.34,3.34,0,0,1-.94.62,2.55,2.55,0,0,1-1,.23,2,2,0,0,1-1.84-1,6.08,6.08,0,0,1-.56-3,5.72,5.72,0,0,1,.69-3.06,2.35,2.35,0,0,1,2.13-1.13,3.47,3.47,0,0,1,.79.11,2.51,2.51,0,0,1,.74.28l.06,0Z"/><polygon class="cls-1" points="66.75 7.34 61.09 7.34 61.09 0.84 57.43 0.84 57.43 18.64 61.09 18.64 61.09 10.45 66.75 10.45 66.75 18.64 70.42 18.64 70.42 0.84 66.75 0.84 66.75 7.34"/><path class="cls-1" d="M79.12,4.79a5.69,5.69,0,0,0-4.58,1.94A7.9,7.9,0,0,0,72.89,12a7.12,7.12,0,0,0,1.75,5.15,6.75,6.75,0,0,0,5,1.8,10.11,10.11,0,0,0,1.54-.1,11.23,11.23,0,0,0,1.23-.28,6.93,6.93,0,0,0,1-.35l.77-.34V14.69H84c-.16,0-.36.22-.6.39a7.73,7.73,0,0,1-.86.48,6,6,0,0,1-1.17.43,5.61,5.61,0,0,1-2.72,0,3.1,3.1,0,0,1-1.16-.57,2.9,2.9,0,0,1-.82-1.07,4.86,4.86,0,0,1-.36-1.7v-.21h8.23V11.16a7.39,7.39,0,0,0-1.4-4.74,4.93,4.93,0,0,0-4-1.63M76.3,10.17v-.09A3.46,3.46,0,0,1,77,8a2.21,2.21,0,0,1,1.79-.78A2,2,0,0,1,80.49,8a3.56,3.56,0,0,1,.57,2.08v.09Z"/><path class="cls-1" d="M95.27,6a6.94,6.94,0,0,0-4.41-1.14,12.25,12.25,0,0,0-2.42.25,12.57,12.57,0,0,0-1.64.4v3h.05a10.78,10.78,0,0,1,1.7-.67,5.39,5.39,0,0,1,1.57-.27A4.72,4.72,0,0,1,92.44,8a1.84,1.84,0,0,1,.86,1.68v.21h-.2c-1.06.08-2.1.2-3,.34a7.34,7.34,0,0,0-2.37.76,3.72,3.72,0,0,0-1.47,1.43,4.8,4.8,0,0,0-.52,2.38,4.44,4.44,0,0,0,1,3,3.21,3.21,0,0,0,2.51,1.16,4.54,4.54,0,0,0,1.28-.14,4.81,4.81,0,0,0,.94-.41,3.88,3.88,0,0,0,.77-.56c.21-.19.36-.41.62-.66l.17-.22v1.72h3.68V9.42A4.32,4.32,0,0,0,95.27,6M92.12,16a2.32,2.32,0,0,1-1,.27,2.21,2.21,0,0,1-1.41-.39,1.73,1.73,0,0,1-.5-1.43,2,2,0,0,1,.3-1.13,1.76,1.76,0,0,1,.82-.64,4.54,4.54,0,0,1,1.17-.32c.39-.05.83-.12,1.46-.19l.09,0V15.2l0,0a3.2,3.2,0,0,1-.93.75"/><rect class="cls-1" x="99.51" width="3.39" height="18.64"/><path class="cls-1" d="M109.68,1.41h-3.39V5.09h-1.41V7.91h1.41V14.4a4.78,4.78,0,0,0,1,3.39,4.33,4.33,0,0,0,3.2,1,11.19,11.19,0,0,0,1.67-.1,7.86,7.86,0,0,0,1.18-.25V15.82h-.18a4.23,4.23,0,0,0-.67.21,2.59,2.59,0,0,1-.82.13,2.1,2.1,0,0,1-1.17-.28,1.46,1.46,0,0,1-.58-.75,3.07,3.07,0,0,1-.21-1c0-.36,0-.78,0-1.25v-5h3.67V5.09h-3.67Z"/><path class="cls-1" d="M125.07,6.1a3.13,3.13,0,0,0-2.7-1.26,3.69,3.69,0,0,0-1.85.47,9.62,9.62,0,0,0-1.79,1.36l-.29.24V0H115V18.64h3.39V9l.09,0a4.52,4.52,0,0,1,1-.64,2.7,2.7,0,0,1,1-.21,2.16,2.16,0,0,1,1,.22,1.44,1.44,0,0,1,.62.73,4.94,4.94,0,0,1,.17,1.26c0,.54,0,1.1,0,1.66v6.7h3.67V9.83a6.29,6.29,0,0,0-1-3.73"/></g></g></svg>