<svg xmlns="http://www.w3.org/2000/svg" viewBox="0 0 92.74 19.16"><defs><style>.cls-1{fill:#1f1e21;fill-rule:evenodd;}</style></defs><title>Asset 6</title><g id="Layer_2" data-name="Layer 2"><g id="copy"><path class="cls-1" d="M12.29,9.64H6.56v3.1H8.65c0,1.17-.6,3-2,3-2,0-2.11-2.35-2.11-6.12,0-3.41.26-6.18,2-6.18,1.56,0,1.7,1.34,1.81,3.51h4c0-4.08-1.84-6.92-6-6.92C1.35,0,0,5.17,0,10.06c0,5.33,1.77,9.1,6.1,9.1a4.73,4.73,0,0,0,3.63-1.78l.66,1.4h1.9Z"/><path class="cls-1" d="M61.14,0C56.21,0,54.7,4.86,54.7,9.56s1.51,9.56,6.44,9.56,6.44-4.86,6.44-9.56S66.07,0,61.14,0m0,15.71c-1.93,0-1.93-2.53-1.93-6.15s0-6.15,1.93-6.15,1.93,2.53,1.93,6.15,0,6.15-1.93,6.15"/><path class="cls-1" d="M92.74,5.56c0-3.62-2.42-5.22-5.56-5.22H80.94v18.4h4.19v-8h1.39l2.07,8h4.14L90,9.8a4.55,4.55,0,0,0,2.77-4.24M85.94,7.7h-.81V3.61h.7c1.4,0,2.72.15,2.72,2.07,0,1.48-1,2-2.6,2"/><polygon class="cls-1" points="17.21 0.35 13.03 0.35 13.03 18.76 22.89 18.76 22.89 14.61 17.21 14.61 17.21 0.35"/><polygon class="cls-1" points="47.23 0.36 45.72 9.06 44.21 0.36 37.34 0.36 37.34 18.77 41.56 18.77 41.56 4.71 41.6 4.71 44.23 18.77 46.03 18.77 46.03 18.76 47.21 18.76 49.84 4.7 49.89 4.7 49.89 18.76 54.1 18.76 54.1 0.36 47.23 0.36"/><path class="cls-1" d="M75.93.36V13.12c0,1.39-.41,2.58-1.8,2.58s-1.8-1.19-1.8-2.58V.36H68.15V12.92c0,4,1.64,6.24,5.49,6.24h1c3.79,0,5.51-2.27,5.51-6.22V.36Z"/><path class="cls-1" d="M33.26.36H26.93l-3.54,18.4h4.23L28.28,15h3.64l.65,3.72H36.8Zm-4.4,11.43,1.2-7.31,1.27,7.31Z"/></g></g></svg>