<svg xmlns="http://www.w3.org/2000/svg" viewBox="0 0 99.88 23.28"><defs><style>.cls-1{fill:#1f1e21;fill-rule:evenodd;}</style></defs><title>Asset 3</title><g id="Layer_2" data-name="Layer 2"><g id="copy"><path class="cls-1" d="M0,.22H3.62V18.63H0Zm13.54,4a13.53,13.53,0,0,1,2.8,0A7.51,7.51,0,0,1,19,5.09,4.78,4.78,0,0,1,20.78,6.6a5.79,5.79,0,0,1,1,2.16A6.32,6.32,0,0,1,22,10.14l.09,8.49H18.71v-7.2c-.13-.69-.28-1.38-.39-2.07a1.79,1.79,0,0,0-.65-1.25,4.09,4.09,0,0,0-1.29-.64,8,8,0,0,0-2-.26,10.88,10.88,0,0,0-2.16.22A5.16,5.16,0,0,0,10.57,8l-1.21.73-.57.34v9.57H5.47V4.44H8.79V5.7A8.86,8.86,0,0,1,10.22,5a18.71,18.71,0,0,1,3.32-.73"/><path class="cls-1" d="M85,10.26H96a3.39,3.39,0,0,0-.3-.78,4.75,4.75,0,0,0-1-1,5.87,5.87,0,0,0-1.43-.82,7.25,7.25,0,0,0-1.81-.43,9.42,9.42,0,0,0-2,0,6.81,6.81,0,0,0-1.72.39,5.16,5.16,0,0,0-1.42.78,3,3,0,0,0-1,1.07ZM75.53,4.44,65.05,23.28H61.3L64,18.45l-7.54-14h3.88L66,15.1,71.78,4.44Zm1-4.22h3.45V18.67H76.48ZM86.86,4.87a14.65,14.65,0,0,1,3.62-.48A16.92,16.92,0,0,1,94.06,5a6.31,6.31,0,0,1,2.72,1.51,7.14,7.14,0,0,1,1.94,2.67,15.69,15.69,0,0,1,1.16,3.79H85a4.71,4.71,0,0,0,.78,1.38,6.79,6.79,0,0,0,1.29,1.08,4,4,0,0,0,1.6.56,13.52,13.52,0,0,0,1.81.21,20.3,20.3,0,0,0,2.8-.21,11.23,11.23,0,0,0,1.86-.43,7.94,7.94,0,0,0,1.38-.65l1-.56,1.73,2.29c-.52.35-1.1.69-1.64,1a8.18,8.18,0,0,1-1.9.82,16,16,0,0,1-2.29.48c-1,.1-2,.07-2.93.08a11.93,11.93,0,0,1-3.83-.65,7.14,7.14,0,0,1-2.81-1.51,6.21,6.21,0,0,1-1.63-2.24,8.11,8.11,0,0,1-.56-2.85,8,8,0,0,1,.69-3,6.65,6.65,0,0,1,1.72-2.33,7.17,7.17,0,0,1,2.8-1.51m-62.21.6a4.14,4.14,0,0,0,1,2.41A5.73,5.73,0,0,0,28,9.49a13.31,13.31,0,0,0,3.24.86c1,.1,1.92.14,2.88.22s2.11.07,3.15.22a16.82,16.82,0,0,1,2.32.56A2.5,2.5,0,0,1,41,12.5a1.42,1.42,0,0,1,.13,1.21A2.51,2.51,0,0,1,40.39,15a4.27,4.27,0,0,1-1.64.86,12.3,12.3,0,0,1-2.24.35,23.25,23.25,0,0,1-3.23-.09,29.26,29.26,0,0,1-3.36-.56,8.85,8.85,0,0,1-2.55-.78l-2-1.17-1.73,2.8c.84.4,1.65.85,2.5,1.21a18.07,18.07,0,0,0,2.67.95,20.37,20.37,0,0,0,3,.43,25.68,25.68,0,0,0,3.45.13,27.58,27.58,0,0,0,3.92-.47,9.65,9.65,0,0,0,3-1.25,5.56,5.56,0,0,0,1.86-1.94,3.78,3.78,0,0,0,.56-2.37,4.62,4.62,0,0,0-1.21-2.8A5.35,5.35,0,0,0,41,8.5a22.11,22.11,0,0,0-3.45-.82c-1.11-.18-2.24-.16-3.36-.26-.53,0-1.07-.11-1.59-.17-.69-.08-1.39-.12-2.07-.26a3.55,3.55,0,0,1-1.64-.73c-.37-.31-1-.52-1-1s.53-.74.86-1A5,5,0,0,1,30,3.37a10.19,10.19,0,0,1,2.07-.48,13.5,13.5,0,0,1,2-.17,20.25,20.25,0,0,1,2.8.17,15.64,15.64,0,0,1,2.28.56,10.84,10.84,0,0,1,2,.78l1.59.86,1.73-2.42c-.65-.34-1.27-.73-1.94-1A15.69,15.69,0,0,0,40.39.78a18.76,18.76,0,0,0-2.8-.55A21.67,21.67,0,0,0,34.14,0a30.5,30.5,0,0,0-3.79.43,9,9,0,0,0-3.1,1,5.76,5.76,0,0,0-2,1.81,3.31,3.31,0,0,0-.56,2.24m20.39-1h2.37V.78h3.45V4.44h4.49v2.8H50.87c0,2.73-.35,5.48,0,8.19.06.44.65.44,1,.52a9.41,9.41,0,0,0,1.29.21,4.81,4.81,0,0,0,1-.13c.25,0,.49-.13.74-.17l.26,0,.17-.17h.13l.73,2.88-.43.09-1,.22c-.43.07-.86.16-1.29.22a7.43,7.43,0,0,1-1.42.12,11.13,11.13,0,0,1-1.94-.34A2.58,2.58,0,0,1,48.71,18c-.33-.4-.79-.79-.86-1.3l-.26-2-.18-7.5H45.05Z"/></g></g></svg>