<svg xmlns="http://www.w3.org/2000/svg" viewBox="0 0 106.32 22.18"><defs><style>.cls-1{fill:#1f1e21;}</style></defs><title>Asset 5</title><g id="Layer_2" data-name="Layer 2"><g id="copy"><path class="cls-1" d="M3,7.63l0,0A3.68,3.68,0,0,1,6.33,5.79c2.53,0,4.77,1.95,4.77,6C11.1,14.93,9.67,18,6.27,18A3.65,3.65,0,0,1,3,16.21l0,0v1.44H0V2.14H3Zm2.46.84c-1.9,0-2.57,1.79-2.57,3.41,0,1.3.39,3.54,2.57,3.54S8,13.18,8,11.88c0-1.61-.67-3.41-2.56-3.41"/><path class="cls-1" d="M18.43,5.79c3.69,0,5.87,2.55,5.87,6.08S22.12,18,18.43,18s-5.86-2.54-5.86-6.08,2.24-6.08,5.86-6.08m0,9.62c2.16,0,2.76-1.72,2.76-3.54s-.6-3.54-2.76-3.54-2.76,1.79-2.76,3.54.71,3.54,2.76,3.54"/><path class="cls-1" d="M36.84,17.61H33.93V16.17l0,0A3.64,3.64,0,0,1,30.57,18c-3.41,0-4.83-3-4.83-6.21,0-4,2.24-6,4.77-6a3.69,3.69,0,0,1,3.32,1.79l0,0V2.14h3Zm-5.43-2.2c2.17,0,2.56-2.24,2.56-3.54,0-1.61-.67-3.41-2.56-3.41s-2.57,1.79-2.57,3.41c0,1.3.39,3.54,2.57,3.54"/><path class="cls-1" d="M45.59,17.42c-1.36,3.94-1.68,4.76-4.63,4.76-.39,0-.69,0-1.17-.07V19.7c.24,0,.65.07.89.07a1.63,1.63,0,0,0,1.68-1.56L38.15,6.14H41.5L44,14.59h0l2.35-8.45h3.19Z"/><polygon class="cls-1" points="56.77 7.71 56.77 11.61 60.67 11.61 60.67 13.71 56.77 13.71 56.77 17.61 54.68 17.61 54.68 13.71 50.78 13.71 50.78 11.61 54.68 11.61 54.68 7.71 56.77 7.71"/><path class="cls-1" d="M69.39,9.58V9.21a2.12,2.12,0,0,0-.19-.92,1.42,1.42,0,0,0-.55-.62A4.07,4.07,0,0,0,66.44,7a2.38,2.38,0,0,0-1.64.53A1.81,1.81,0,0,0,64.19,9a1.41,1.41,0,0,0,.64,1.24,6.91,6.91,0,0,0,2.35.76,7.31,7.31,0,0,1,3,1.08,2.25,2.25,0,0,1,.87,1.9,3.53,3.53,0,0,1-1.51,3,6.51,6.51,0,0,1-4,1.14A9.28,9.28,0,0,1,64,17.93a12.66,12.66,0,0,1-1.69-.43c.1-.66.17-1.23.21-1.71a16.65,16.65,0,0,0,0-1.68h.72v1.07a1.6,1.6,0,0,0,.13.63,1.41,1.41,0,0,0,.32.49,3.1,3.1,0,0,0,.84.56,4.25,4.25,0,0,0,1.76.34,3.5,3.5,0,0,0,2.14-.6A1.92,1.92,0,0,0,69.28,15a1.53,1.53,0,0,0-.63-1.32,6.37,6.37,0,0,0-2.29-.76,6.65,6.65,0,0,1-3-1.14,2.69,2.69,0,0,1-.85-2.15,2.93,2.93,0,0,1,1.23-2.45A5.29,5.29,0,0,1,67,6.24a8.26,8.26,0,0,1,1.6.17,10.46,10.46,0,0,1,1.63.46c-.06.52-.1,1-.12,1.34s0,.84,0,1.36Z"/><path class="cls-1" d="M74.2,16.41a6.17,6.17,0,0,1-1.55-4.35,5.49,5.49,0,0,1,1.72-4.19,6.13,6.13,0,0,1,4.42-1.63,5.46,5.46,0,0,1,4,1.52,5.28,5.28,0,0,1,1.55,3.94,6.34,6.34,0,0,1-1.71,4.6,5.85,5.85,0,0,1-4.42,1.79,5.2,5.2,0,0,1-4-1.68m7-.37a5.94,5.94,0,0,0,.88-3.45,7,7,0,0,0-1-4.07A3.26,3.26,0,0,0,78.2,7,2.87,2.87,0,0,0,75.8,8.15a5,5,0,0,0-.88,3.09,8.22,8.22,0,0,0,1,4.43,3.21,3.21,0,0,0,2.83,1.63A2.76,2.76,0,0,0,81.18,16"/><path class="cls-1" d="M89.55,6.48v7.25A3.33,3.33,0,0,0,90.14,16a2.69,2.69,0,0,0,2.06.64,2.84,2.84,0,0,0,2.07-1A4.92,4.92,0,0,0,95,14.57a2.05,2.05,0,0,0,.17-.41,1.87,1.87,0,0,0,.05-.43V9.79a4.15,4.15,0,0,0-.17-1.56c-.1-.2-.39-.3-.85-.3h-1V7.25C94,7.13,94.67,7,95.2,6.87s1.15-.34,1.87-.61l.23.2v8.63a3.85,3.85,0,0,0,.16,1.46c.1.2.37.31.81.34l.92.07v.72c-.78,0-1.46-.07-2-.07s-1.25,0-2,.07c0-.43.07-.81.1-1.13l0-1.06a27,27,0,0,1-2.3,2,3.66,3.66,0,0,1-2.13.57,3.42,3.42,0,0,1-2.54-.82,3.83,3.83,0,0,1-.78-2.67V9.79a4.29,4.29,0,0,0-.17-1.56c-.11-.2-.4-.3-.85-.3h-1V7.25c.74-.13,1.37-.25,1.91-.38s1.15-.34,1.87-.61l.22.2Z"/><path class="cls-1" d="M102.27,15.09V2.8a2.15,2.15,0,0,0-.15-1c-.1-.15-.3-.22-.63-.22h-1.2V.9a18.68,18.68,0,0,0,1.9-.33c.53-.13,1.15-.32,1.87-.57l.22.21h0V15.09a3.79,3.79,0,0,0,.17,1.46c.11.19.41.31.87.34l1,.07v.71c-1.18,0-2.19-.07-3-.07s-1.86,0-3,.07V17l1-.07c.46,0,.76-.15.87-.34a3.78,3.78,0,0,0,.17-1.46"/></g></g></svg>