<svg xmlns="http://www.w3.org/2000/svg" viewBox="0 0 138.75 23.05"><defs><style>.cls-1,.cls-2{fill:#1f1e21;}.cls-1{fill-rule:evenodd;}</style></defs><title>Asset 2</title><g id="Layer_2" data-name="Layer 2"><g id="copy"><path class="cls-1" d="M64.67,2.07A5.26,5.26,0,0,0,59,.21c-2.06.47-3.5,2.6-4,4.52a31,31,0,0,0-.42,11.82c.42,2.36,1.27,5.06,3.77,6a5.41,5.41,0,0,0,5.68-1c2.33-2.45,2.56-5.85,2.73-9.18s-.12-6.75-1.61-9.58Zm-2.14,15c-.27,1-.52,2.34-1.73,2.61a1.6,1.6,0,0,1-1.59-.55c-.89-1.29-.92-3-1-4.57-.15-3.42-.37-7.13.7-10.2a1.86,1.86,0,0,1,1.39-1.07,1.63,1.63,0,0,1,1.66.85,11.69,11.69,0,0,1,.89,4.32,38.12,38.12,0,0,1-.3,8.61"/><path class="cls-1" d="M18.72.05A5.49,5.49,0,0,0,14,3.38a21.2,21.2,0,0,0-1.36,7.9c.1,3.52.08,7.12,2.11,9.83A4.91,4.91,0,0,0,19.44,23a5.33,5.33,0,0,0,4.25-3.1,21.06,21.06,0,0,0,1.44-8.71c-.07-3-.25-6-1.66-8.52A5.15,5.15,0,0,0,18.72.05m1.79,18.37A2,2,0,0,1,19,19.79a1.48,1.48,0,0,1-1.34-.39,4.57,4.57,0,0,1-1-2.61,40.47,40.47,0,0,1,.2-10.95c.25-1,.47-2.28,1.69-2.53a1.68,1.68,0,0,1,1.83,1c.9,2.11.82,4.62.85,7s0,4.9-.77,7.05"/><path class="cls-1" d="M35,12c-1.69-1.81-4.54-2.73-5.15-5.29-.12-1.24-.22-2.81,1-3.42a1.44,1.44,0,0,1,1.12,0A2.2,2.2,0,0,1,32.9,5,19,19,0,0,1,33,7.66h3.52a9.72,9.72,0,0,0-.79-5.1,4.71,4.71,0,0,0-2.16-2,5.43,5.43,0,0,0-5.48.6A6.71,6.71,0,0,0,26.2,7.88c.64,2.8,3.67,4.31,5.65,6.25a4,4,0,0,1,1.29,3.67,2.21,2.21,0,0,1-1.44,2.09,1.53,1.53,0,0,1-1.37-.32c-1.14-1.19-.89-3.08-.89-4.74,0,0-2.46,0-3.65,0-.17,2.24,0,4.58,1.36,6.34a5.66,5.66,0,0,0,5.46,1.67,5.21,5.21,0,0,0,4-3.85A6.9,6.9,0,0,0,35,12"/><path class="cls-1" d="M85.37.13a5.22,5.22,0,0,0-4.24,3.33c-1.26,3.1-1.34,6.8-1.19,10.37.3,3.4.64,7.35,4.25,8.87a5.47,5.47,0,0,0,5.6-1.12c2.06-2.28,2.41-5.29,2.63-8.34.07-3.43,0-6.93-1.34-9.86A5.4,5.4,0,0,0,85.37.13m2.78,17.4c-.25.83-.55,1.84-1.47,2.17a1.71,1.71,0,0,1-1.88-.63,5.83,5.83,0,0,1-.8-2.63A40.67,40.67,0,0,1,84,6a3.41,3.41,0,0,1,1.39-2.54,1.67,1.67,0,0,1,1.85.35c.93,1.22,1,2.81,1.17,4.34a39.14,39.14,0,0,1-.3,9.35"/><path class="cls-1" d="M11.75,13.61H8c-.12,1.93,0,3.94-.81,5.55a1.36,1.36,0,0,1-1.44.65c-.7-.17-1-.92-1.27-1.54A36.07,36.07,0,0,1,4,6.83a5.23,5.23,0,0,1,1.12-3.2,1.44,1.44,0,0,1,1.27-.16,2.54,2.54,0,0,1,1.19,2c.2,1.09.2,2.3.32,3.42h3.67a12.63,12.63,0,0,0-1.34-6.36A5,5,0,0,0,4.65.28C2.07.8.9,3.53.45,5.79c0,.25-.17.55,0,.75,0,0-.1,0-.1.07a35.39,35.39,0,0,0-.3,6c.22,3.07.35,6.21,2.16,8.63A5.17,5.17,0,0,0,7.8,22.79c3.23-1.19,3.85-4.71,4-7.79a5.3,5.3,0,0,0-.07-1.38"/><path class="cls-1" d="M45.53,13.31l-.08.14C44.56,9.21,43.67,4.87,42.85.6H37.77V22.47h3.36v-15L43,16.79c.4,1.89,1.14,5.68,1.14,5.68h2.68l3-14.4V22.48h3.29V.58H48.21Z"/><path class="cls-1" d="M74.3.58,67.85.6V22.48h3.76V14.8h2.15a5.17,5.17,0,0,0,4-1.74c2.16-2.23,2.31-6,1.29-8.84A5.75,5.75,0,0,0,74.3.58m.6,10.3c-.79,1-2,.92-3.22.92v-8c.05-.07,0-.2.11-.18,1.37-.12,2.84.1,3.46,1.44.79,1.71.86,4.29-.35,5.83"/><polygon class="cls-1" points="97.57 0.58 93.85 0.58 93.85 22.47 101.37 22.47 101.37 19.54 97.57 19.54 97.57 0.58"/><rect class="cls-2" x="102.29" y="0.58" width="3.67" height="21.92"/><polygon class="cls-1" points="116.59 0.58 106.59 0.58 106.59 3.73 109.82 3.73 109.82 22.49 113.41 22.49 113.41 3.69 116.59 3.69 116.59 0.58"/><path class="cls-1" d="M118.54.58,115,22.51h3.61l1-6.12h3.25l1,6.11h3.45L123.65.58ZM120,13.35l1.14-7.93,0-.1c.42,2.65,1.19,8,1.19,8Z"/><path class="cls-1" d="M135.68.58V14S132.19.58,132.19.58H128.1v21.9h3.1V8.67c.15.45,3.63,13.83,3.63,13.83h3.93V.58Z"/></g></g></svg>