<svg xmlns="http://www.w3.org/2000/svg" viewBox="0 0 113.59 47.63"><defs><style>.cls-1{fill:#1f1e21;}</style></defs><title>Asset 8</title><g id="Layer_2" data-name="Layer 2"><g id="copy"><path class="cls-1" d="M44,9.47V.81H41.6a1.6,1.6,0,0,0-.76.11c-.11.08-.17.25-.19.54l0,1.21H40.1c0-.51,0-1,0-1.33S40.06.52,40,0l4.78.05L49.57,0a10.41,10.41,0,0,0-.12,1.33,12.15,12.15,0,0,0,0,1.34H49l0-1.21c0-.29-.08-.47-.19-.54A1.58,1.58,0,0,0,48,.81h-2.4V9.47a2.83,2.83,0,0,0,.16,1.24c.1.17.37.26.79.28l.9,0v.49c-1,0-1.89,0-2.63,0s-1.61,0-2.62,0V11l.89,0c.42,0,.68-.11.79-.28A2.86,2.86,0,0,0,44,9.47"/><path class="cls-1" d="M51.88,9.47V2.06A3.25,3.25,0,0,0,51.74.82c-.1-.17-.33-.26-.71-.27l-.8-.05V0c.94,0,1.75.05,2.43.05S54.15,0,55.1,0V.49l-.79.05c-.38,0-.62.1-.71.27a3.23,3.23,0,0,0-.15,1.24V5l3.32,0,3.33,0V2.06A3.22,3.22,0,0,0,60,.82c-.1-.17-.33-.26-.71-.27L58.46.49V0c.93,0,1.74.05,2.43.05S62.38,0,63.32,0V.49l-.79.05c-.38,0-.61.1-.71.27a3.3,3.3,0,0,0-.14,1.24V9.47a3.25,3.25,0,0,0,.14,1.24q.14.25.71.28l.79,0v.49c-.93,0-1.74,0-2.42,0s-1.49,0-2.44,0V11l.79,0c.38,0,.62-.11.71-.28a3.17,3.17,0,0,0,.14-1.24V5.79c-1.24,0-2.34,0-3.33,0s-2.08,0-3.32,0V9.47a3.17,3.17,0,0,0,.15,1.24c.09.17.33.26.71.28l.79,0v.49c-.93,0-1.74,0-2.43,0s-1.49,0-2.44,0V11l.8,0c.38,0,.62-.11.71-.28a3.2,3.2,0,0,0,.14-1.24"/><path class="cls-1" d="M64.3,11.53V11L65,11c.32,0,.52-.12.6-.29a3.71,3.71,0,0,0,.12-1.23V2.06A3.22,3.22,0,0,0,65.56.82c-.09-.17-.33-.26-.71-.27L64.05.49V0c.46,0,1.1.06,1.93.07s1.61,0,2.35,0q1.57-.05,2.9,0a15,15,0,0,1,1.68.06c-.09.48-.16.89-.2,1.24a12.47,12.47,0,0,0-.05,1.26h-.59V1.24c0-.12-.23-.23-.68-.33A10.81,10.81,0,0,0,69.64.7c-.3,0-.57,0-.83,0-.46,0-1,0-1.54.08v4.5q1.05.06,1.92,0a4.52,4.52,0,0,0,1.71-.16c.15-.11.24-.54.28-1.32h.48c0,.73,0,1.36,0,1.88s0,1.16,0,1.89h-.48c0-.83-.14-1.31-.28-1.43A4.33,4.33,0,0,0,69.19,6c-.58,0-1.22,0-1.92,0v4.69c.76.06,1.44.1,2,.1a21.06,21.06,0,0,0,2.19-.12.9.9,0,0,0,.76-.39,5.36,5.36,0,0,0,.34-1.57h.58c-.1.51-.16,1-.2,1.34a13.57,13.57,0,0,0-.06,1.36c-.43,0-1.1.05-2,.06s-1.77,0-2.62,0-1.61,0-2.39,0-1.32,0-1.62.07"/><path class="cls-1" d="M1.64,27.38V20a3.29,3.29,0,0,0-.14-1.24c-.09-.17-.33-.26-.71-.28L0,18.4v-.49c.93,0,1.74,0,2.42,0s1.49,0,2.44,0v.49l-.79,0q-.57,0-.7.28A3,3,0,0,0,3.21,20V22.9l3.33,0,3.32,0V20a3.17,3.17,0,0,0-.14-1.24c-.09-.17-.33-.26-.71-.28l-.8,0v-.49c.94,0,1.75,0,2.42,0s1.5,0,2.45,0v.49l-.8,0c-.38,0-.61.11-.71.28A3.32,3.32,0,0,0,11.43,20v7.41a3.29,3.29,0,0,0,.14,1.24c.1.17.33.26.71.28l.8,0v.49c-.94,0-1.75,0-2.43,0s-1.49,0-2.44,0v-.49l.8,0c.37,0,.61-.11.71-.28a3.14,3.14,0,0,0,.14-1.24V23.69c-1.23,0-2.34,0-3.32,0s-2.09,0-3.33,0v3.69a3,3,0,0,0,.15,1.24c.09.17.32.26.7.28l.79,0v.49c-.93,0-1.74,0-2.42,0s-1.49,0-2.44,0v-.49l.79,0c.38,0,.62-.11.72-.28a3.36,3.36,0,0,0,.13-1.24"/><path class="cls-1" d="M24.48,24.91a5.07,5.07,0,0,1-1.14,3.62,4.55,4.55,0,0,1-3.44,1.2,5.38,5.38,0,0,1-3.52-.92,3.73,3.73,0,0,1-1.08-3V20a3.16,3.16,0,0,0-.14-1.24c-.09-.17-.33-.26-.71-.28l-.8,0v-.49c.93,0,1.75,0,2.42,0s1.49,0,2.44,0v.49l-.79,0c-.38,0-.62.11-.71.28A3.1,3.1,0,0,0,16.86,20v5.71A3.06,3.06,0,0,0,17.64,28a3.46,3.46,0,0,0,2.44.74,3.63,3.63,0,0,0,2.75-.93,4.16,4.16,0,0,0,.87-2.93V20a3,3,0,0,0-.15-1.24c-.11-.17-.36-.26-.78-.28l-.87,0v-.49c.8,0,1.49,0,2.07,0s1.27,0,2.07,0v.49l-.76,0a.67.67,0,0,0-.67.41,7.47,7.47,0,0,0-.13,1.88Z"/><path class="cls-1" d="M28.37,27.38V20a3.41,3.41,0,0,0-.14-1.24c-.1-.17-.33-.26-.71-.28l-.79,0v-.49c.46,0,1.1.06,1.92.06s1.59,0,2.32,0q1.49,0,2.74,0a11.31,11.31,0,0,1,1.55.06c-.1.48-.16.89-.2,1.24A12.22,12.22,0,0,0,35,20.48h-.58V19.13c0-.15-.27-.27-.8-.37a10.41,10.41,0,0,0-1.91-.15h-.38c-.41,0-.87,0-1.38.08v4.47l1.91,0A4.56,4.56,0,0,0,33.57,23q.22-.16.26-1.29h.49c0,.73,0,1.35,0,1.88s0,1.16,0,1.89h-.49c0-.83-.12-1.29-.27-1.41a4.41,4.41,0,0,0-1.71-.17c-.56,0-1.21,0-1.91.06v3.39a3.15,3.15,0,0,0,.14,1.24c.1.17.33.26.71.28l.79,0v.49c-.93,0-1.74,0-2.42,0s-1.5,0-2.44,0v-.49l.79,0c.38,0,.61-.11.71-.28a3.21,3.21,0,0,0,.14-1.24"/><path class="cls-1" d="M37.6,27.38V20a3.31,3.31,0,0,0-.14-1.24c-.09-.17-.33-.26-.71-.28l-.79,0v-.49c.46,0,1.1.06,1.92.06s1.59,0,2.32,0c1,0,1.91,0,2.74,0a11.34,11.34,0,0,1,1.56.06c-.09.48-.16.89-.2,1.24a12.29,12.29,0,0,0-.06,1.27h-.58V19.13c0-.15-.27-.27-.8-.37a10.39,10.39,0,0,0-1.91-.15h-.38c-.41,0-.87,0-1.39.08v4.47l1.91,0A4.55,4.55,0,0,0,42.8,23c.14-.11.23-.54.27-1.29h.48c0,.73,0,1.35,0,1.88s0,1.16,0,1.89h-.48c0-.83-.14-1.29-.28-1.41a4.44,4.44,0,0,0-1.71-.17c-.57,0-1.2,0-1.91.06v3.39a3.18,3.18,0,0,0,.15,1.24c.1.17.33.26.71.28l.79,0v.49c-.94,0-1.74,0-2.42,0s-1.49,0-2.44,0v-.49l.79,0c.38,0,.62-.11.71-.28a3.35,3.35,0,0,0,.14-1.24"/><path class="cls-1" d="M46.83,27.38V20a3.2,3.2,0,0,0-.14-1.25c-.1-.17-.33-.26-.71-.27l-.8,0v-.49c.94,0,1.74,0,2.42,0s1.49,0,2.44,0v.49l-.8,0c-.38,0-.61.11-.71.27A3.28,3.28,0,0,0,48.41,20v7.41a3.31,3.31,0,0,0,.14,1.25c.1.17.33.25.71.27l.8,0v.49c-.93,0-1.74,0-2.42,0s-1.5,0-2.44,0v-.49l.8,0c.38,0,.61-.11.71-.28a3.17,3.17,0,0,0,.14-1.24"/><path class="cls-1" d="M53,27.38a3.17,3.17,0,0,0,.14,1.24c.09.17.33.26.71.28l.8,0v.49c-.77,0-1.43,0-2,0s-1.22,0-2,0v-.49l.76,0c.36,0,.58-.11.67-.28a3.26,3.26,0,0,0,.14-1.23V20a3.21,3.21,0,0,0-.14-1.23c-.08-.17-.31-.27-.68-.29l-.76,0v-.49l1.43,0c.41,0,.89,0,1.44-.06L54.42,19c.17.23.42.54.74.92l6.41,7.86V20a3.31,3.31,0,0,0-.14-1.25c-.1-.17-.34-.26-.71-.27l-.79,0v-.49c.77,0,1.43,0,2,0s1.22,0,2,0v.49l-.77,0c-.36,0-.57.11-.67.29A3.28,3.28,0,0,0,62.34,20v9.1a3.58,3.58,0,0,0,0,.4,1,1,0,0,0,0,.25l-1.52-.28L53,19.81Z"/><path class="cls-1" d="M71.1,29.73a6.7,6.7,0,0,1-4.73-1.66,5.68,5.68,0,0,1-1.79-4.38,5.54,5.54,0,0,1,2-4.39,7.5,7.5,0,0,1,5.06-1.69,12.65,12.65,0,0,1,2.15.19,11.25,11.25,0,0,1,2,.51c-.11.48-.19.89-.23,1.24s-.07.77-.09,1.27h-.51v-1a.9.9,0,0,0-.06-.39.63.63,0,0,0-.26-.25,5.53,5.53,0,0,0-1.26-.56,6.48,6.48,0,0,0-1.9-.28,5,5,0,0,0-3.68,1.3,4.89,4.89,0,0,0-1.32,3.64,6,6,0,0,0,1.42,4.23A5,5,0,0,0,71.67,29h0a7,7,0,0,0,1.72-.21,1,1,0,0,0,.58-.3,1.19,1.19,0,0,0,.14-.68V26.31a1.28,1.28,0,0,0-.11-.66c-.07-.1-.24-.16-.5-.17l-1.33-.11v-.49c.8,0,1.48,0,2.06,0s1.27,0,2.08,0v.41L76,25.4c-.17.06-.27.12-.3.18a1.91,1.91,0,0,0,0,.57v2.72a16.72,16.72,0,0,1-4.55.86Z"/><path class="cls-1" d="M81.18,27.38V18.71H78.77a1.61,1.61,0,0,0-.75.11.71.71,0,0,0-.19.55l0,1.2h-.52c0-.52,0-1,0-1.33s-.05-.83-.12-1.35l4.78,0,4.79,0a12,12,0,0,0-.12,1.33,12.46,12.46,0,0,0,0,1.35h-.52l0-1.2c0-.29-.07-.47-.19-.55a1.61,1.61,0,0,0-.76-.11h-2.4v8.66a3,3,0,0,0,.16,1.24c.11.17.37.26.79.28l.89,0v.49c-1,0-1.89,0-2.62,0s-1.61,0-2.63,0v-.49l.89,0c.42,0,.69-.11.8-.28a3,3,0,0,0,.16-1.24"/><path class="cls-1" d="M89.05,28a6,6,0,0,1-1.64-4.37,5.71,5.71,0,0,1,1.8-4.37,6.53,6.53,0,0,1,4.65-1.69,5.93,5.93,0,0,1,4.23,1.53,5.16,5.16,0,0,1,1.63,3.94,6.6,6.6,0,0,1-1.8,4.79,6.23,6.23,0,0,1-4.66,1.86A5.62,5.62,0,0,1,89.05,28m7.79-.4A6,6,0,0,0,98,23.82a6.14,6.14,0,0,0-1.23-4,4.13,4.13,0,0,0-3.36-1.48,3.88,3.88,0,0,0-3.06,1.26A5,5,0,0,0,89.19,23a7.17,7.17,0,0,0,1.23,4.42A4,4,0,0,0,93.78,29a3.74,3.74,0,0,0,3.07-1.4"/><path class="cls-1" d="M102.73,27.38a3.31,3.31,0,0,0,.14,1.24c.1.17.34.26.71.28l.79,0v.49c-.76,0-1.43,0-2,0s-1.22,0-2,0v-.49l.76,0c.36,0,.58-.11.67-.28a3.27,3.27,0,0,0,.14-1.23V20a3.22,3.22,0,0,0-.14-1.23c-.09-.17-.32-.27-.68-.29l-.75,0v-.49l1.43,0c.4,0,.89,0,1.44-.06l.85,1.13c.17.23.42.54.74.92l6.41,7.86V20a3.17,3.17,0,0,0-.14-1.25c-.09-.17-.33-.26-.71-.27l-.8,0v-.49c.76,0,1.43,0,2,0s1.22,0,2,0v.49l-.76,0c-.36,0-.58.11-.67.29A3.32,3.32,0,0,0,112,20v9.1c0,.14,0,.28,0,.4a1.23,1.23,0,0,0,0,.25l-1.52-.28-7.84-9.63Z"/><path class="cls-1" d="M37.79,45.28V37.87a3.12,3.12,0,0,0-.14-1.24c-.09-.17-.32-.26-.71-.27l-.79-.05v-.49l2.42,0,3.28,0a4.32,4.32,0,0,1,2.62.69,2.3,2.3,0,0,1,.94,1.95,3.18,3.18,0,0,1-1.15,2.48,4.14,4.14,0,0,1-2.83,1,5.91,5.91,0,0,1-1-.09l-.15-.62a4.14,4.14,0,0,0,1.11.15,2.25,2.25,0,0,0,1.69-.69,2.45,2.45,0,0,0,.68-1.78,2.38,2.38,0,0,0-.69-1.81,2.57,2.57,0,0,0-1.88-.66,6.69,6.69,0,0,0-1.83.21v8.64a3.15,3.15,0,0,0,.14,1.24c.09.17.33.26.71.27l.8,0v.5c-.94,0-1.75,0-2.43,0s-1.5,0-2.44,0v-.5l.79,0c.38,0,.61-.1.72-.27a3.29,3.29,0,0,0,.13-1.24"/><path class="cls-1" d="M47.81,45.95a6,6,0,0,1-1.64-4.37A5.69,5.69,0,0,1,48,37.21a6.52,6.52,0,0,1,4.65-1.69A6,6,0,0,1,56.87,37,5.18,5.18,0,0,1,58.49,41a6.61,6.61,0,0,1-1.8,4.8A6.2,6.2,0,0,1,52,47.63a5.62,5.62,0,0,1-4.22-1.69m7.79-.41a5.94,5.94,0,0,0,1.12-3.82,6.11,6.11,0,0,0-1.23-4,4.12,4.12,0,0,0-3.36-1.48,3.89,3.89,0,0,0-3.06,1.26,5,5,0,0,0-1.12,3.43,7.17,7.17,0,0,0,1.23,4.42,4,4,0,0,0,3.36,1.62,3.71,3.71,0,0,0,3.06-1.4"/><path class="cls-1" d="M65.77,38.56l-.12-1a1.24,1.24,0,0,0-.1-.39.93.93,0,0,0-.25-.26,3.29,3.29,0,0,0-.81-.42,3.88,3.88,0,0,0-1.35-.24,2.4,2.4,0,0,0-1.77.69,2.43,2.43,0,0,0-.69,1.79,1.57,1.57,0,0,0,.65,1.4,5.75,5.75,0,0,0,2.36.65,5.78,5.78,0,0,1,2.73.87,2.23,2.23,0,0,1,.79,1.88,3.72,3.72,0,0,1-1.44,3,5.31,5.31,0,0,1-3.53,1.2,6.32,6.32,0,0,1-1.48-.19,6.45,6.45,0,0,1-1.43-.51c.06-.49.1-.92.12-1.28s0-.79,0-1.28H60l.13,1a1.07,1.07,0,0,0,.1.39.93.93,0,0,0,.24.27,4.08,4.08,0,0,0,2.34.84A3.19,3.19,0,0,0,65,46.18a2.4,2.4,0,0,0,.84-1.89,1.72,1.72,0,0,0-.67-1.51,5.83,5.83,0,0,0-2.45-.7A5,5,0,0,1,60,41.17a2.67,2.67,0,0,1-.77-2.1,3.18,3.18,0,0,1,1.22-2.52,4.49,4.49,0,0,1,3-1,6.53,6.53,0,0,1,1.52.2,7.92,7.92,0,0,1,1.54.51,10.4,10.4,0,0,0-.19,1.16,10.63,10.63,0,0,0-.06,1.18Z"/><path class="cls-1" d="M71.87,45.28V36.62h-2.4a1.59,1.59,0,0,0-.76.11c-.11.08-.17.26-.19.54l0,1.2H68c0-.51,0-1,0-1.32s-.05-.83-.11-1.34l4.78,0,4.79,0a11.16,11.16,0,0,0-.12,1.32,12.15,12.15,0,0,0,0,1.34h-.52l0-1.2c0-.29-.09-.47-.19-.54a1.55,1.55,0,0,0-.76-.11h-2.4v8.66a2.92,2.92,0,0,0,.16,1.24c.11.17.37.26.79.27l.89,0v.5c-1,0-1.89,0-2.63,0s-1.61,0-2.62,0v-.5l.89,0c.42,0,.69-.1.79-.27a2.91,2.91,0,0,0,.16-1.24"/></g></g></svg>